<?xml version="1.0" standalone="no"?>
<!DOCTYPE svg PUBLIC "-//W3C//DTD SVG 20010904//EN"
 "http://www.w3.org/TR/2001/REC-SVG-20010904/DTD/svg10.dtd">
<svg version="1.0" xmlns="http://www.w3.org/2000/svg"
 width="500.000000pt" height="175.000000pt" viewBox="0 0 500.000000 175.000000"
 preserveAspectRatio="xMidYMid meet">

<g transform="translate(0.000000,175.000000) scale(0.100000,-0.100000)"
fill="#000000" stroke="none">
<path d="M694 1664 c-63 -23 -119 -77 -156 -152 l-33 -67 -3 -427 -3 -428 429
0 429 0 61 30 c224 113 230 414 11 535 -51 28 -62 30 -194 35 l-140 5 -5 140
c-5 110 -10 148 -24 175 -36 68 -77 109 -138 139 -51 26 -73 31 -127 30 -36 0
-85 -7 -107 -15z m184 -125 c26 -13 54 -38 70 -62 26 -39 27 -44 27 -191 l0
-151 -52 -5 c-89 -9 -147 -72 -147 -160 0 -88 58 -151 147 -160 l52 -5 0 -45
0 -45 -175 0 -175 0 -3 340 c-2 216 1 353 8 376 14 51 47 88 94 110 54 24 100
24 154 -2z m495 -493 c49 -24 88 -82 94 -140 7 -61 -26 -128 -80 -164 -39 -26
-47 -27 -166 -27 l-126 0 -3 83 -3 82 -100 0 c-98 0 -101 1 -130 29 -19 20
-29 40 -29 59 0 36 41 89 73 95 12 3 114 4 227 3 180 -1 210 -3 243 -20z"/>
<path d="M1717 1296 c-71 -26 -107 -76 -107 -148 0 -25 8 -56 20 -75 22 -37
86 -73 128 -73 40 0 82 -35 82 -68 0 -35 -10 -49 -43 -61 -23 -9 -27 -16 -27
-51 0 -36 2 -40 25 -40 33 0 73 21 104 54 35 37 41 127 12 173 -27 43 -57 61
-121 73 -63 12 -90 33 -90 71 0 32 40 69 74 69 27 0 66 -27 66 -46 0 -10 12
-14 45 -14 53 0 59 17 23 70 -46 67 -118 92 -191 66z"/>
<path d="M2157 1296 c-168 -47 -236 -274 -127 -424 85 -118 294 -127 388 -17
112 133 75 354 -71 424 -56 27 -131 34 -190 17z m161 -103 c55 -41 67 -69 67
-153 0 -85 -12 -112 -69 -154 -39 -29 -133 -29 -173 0 -108 81 -92 273 27 323
37 16 117 7 148 -16z"/>
<path d="M2213 1079 c-30 -11 -32 -63 -3 -79 38 -20 80 22 60 60 -13 23 -30
29 -57 19z"/>
<path d="M2540 1040 l0 -270 125 0 125 0 0 50 0 50 -80 0 -80 0 0 65 0 65 110
0 110 0 0 45 0 45 -110 0 -110 0 0 65 0 65 80 0 80 0 0 45 0 45 -125 0 -125 0
0 -270z"/>
<path d="M2890 1265 l0 -45 160 0 160 0 0 45 0 45 -160 0 -160 0 0 -45z"/>
<path d="M3439 1299 c-122 -28 -197 -140 -187 -276 11 -152 107 -244 254 -244
80 0 140 26 187 82 92 107 87 268 -11 369 -66 68 -149 92 -243 69z m141 -97
c111 -59 111 -265 0 -322 -130 -67 -261 44 -235 200 19 112 138 173 235 122z"/>
<path d="M3480 1072 c-46 -38 1 -99 50 -65 26 18 23 50 -6 70 -19 12 -24 11
-44 -5z"/>
<path d="M3810 1040 l0 -270 45 0 45 0 0 155 c0 85 3 155 8 155 4 0 39 -62 78
-138 l71 -137 46 -3 46 -3 70 138 70 138 0 -82 1 -83 50 0 50 0 0 200 0 200
-48 0 -47 0 -89 -192 c-49 -106 -93 -197 -97 -202 -4 -5 -53 82 -108 193
l-101 201 -45 0 -45 0 0 -270z"/>
<path d="M4637 1300 c-56 -14 -90 -35 -126 -75 -47 -54 -64 -101 -64 -180 -1
-160 97 -266 247 -267 108 0 180 43 226 135 67 135 21 303 -101 364 -52 26
-130 36 -182 23z m151 -106 c39 -29 72 -99 72 -154 0 -55 -33 -125 -73 -154
-40 -29 -134 -29 -174 0 -54 40 -73 80 -73 154 0 77 21 118 80 158 29 20 44
23 88 20 31 -3 64 -13 80 -24z"/>
<path d="M4670 1070 c-25 -25 -25 -35 0 -60 24 -24 30 -24 54 -7 25 18 18 67
-12 78 -17 6 -27 4 -42 -11z"/>
<path d="M3002 943 l3 -168 45 0 45 0 3 168 2 167 -50 0 -50 0 2 -167z"/>
<path d="M1780 530 c0 -91 3 -110 15 -110 12 0 15 19 15 110 0 91 -3 110 -15
110 -12 0 -15 -19 -15 -110z"/>
<path d="M2664 629 c-10 -17 13 -36 27 -22 12 12 4 33 -11 33 -5 0 -12 -5 -16
-11z"/>
<path d="M3520 600 c0 -38 -1 -39 -29 -34 -23 5 -35 1 -55 -19 -55 -55 -16
-126 68 -125 l46 1 0 109 c0 89 -3 108 -15 108 -11 0 -15 -11 -15 -40z m0
-105 c0 -29 -28 -47 -53 -34 -40 23 -6 90 35 68 10 -5 18 -21 18 -34z"/>
<path d="M3580 626 c0 -21 21 -31 30 -15 5 7 6 17 4 21 -9 14 -34 9 -34 -6z"/>
<path d="M3960 530 c0 -91 3 -110 15 -110 12 0 15 19 15 110 0 91 -3 110 -15
110 -12 0 -15 -19 -15 -110z"/>
<path d="M4890 600 c0 -38 -1 -39 -29 -34 -23 5 -35 1 -55 -19 -55 -55 -16
-126 68 -125 l46 1 0 109 c0 89 -3 108 -15 108 -11 0 -15 -11 -15 -40z m0
-105 c0 -29 -28 -47 -53 -34 -40 23 -6 90 35 68 10 -5 18 -21 18 -34z"/>
<path d="M2168 588 c-28 -26 -36 -48 -18 -48 6 0 10 -16 10 -35 0 -25 8 -44
25 -60 29 -30 45 -32 45 -5 0 11 -7 20 -15 20 -11 0 -15 11 -15 40 0 29 4 40
15 40 8 0 15 7 15 15 0 8 -6 15 -14 15 -8 0 -16 10 -18 22 -3 22 -3 22 -30 -4z"/>
<path d="M1646 549 c-69 -54 7 -160 85 -118 16 8 18 13 9 24 -9 11 -17 12 -30
5 -38 -20 -28 8 11 36 l41 28 -26 23 c-33 28 -56 29 -90 2z m61 -25 c2 -5 -10
-18 -27 -27 -29 -18 -30 -18 -30 2 0 31 48 52 57 25z"/>
<path d="M1855 545 c-32 -31 -32 -69 0 -100 27 -28 62 -32 91 -11 18 14 18 15
2 21 -10 4 -25 5 -33 2 -32 -13 -22 12 15 37 34 22 39 30 30 45 -20 38 -71 41
-105 6z m63 -13 c9 -6 4 -14 -18 -30 -16 -12 -32 -22 -35 -22 -11 0 -4 29 11
44 17 18 24 19 42 8z"/>
<path d="M2016 549 c-19 -15 -26 -30 -26 -54 0 -24 7 -39 26 -54 35 -27 57
-26 91 3 35 30 24 44 -19 23 -39 -19 -68 -7 -68 28 0 25 32 51 51 40 5 -4 18
-4 27 0 16 6 15 8 -2 21 -27 19 -49 18 -80 -7z"/>
<path d="M2250 494 c0 -59 3 -74 15 -74 11 0 15 12 15 50 0 39 4 52 20 60 32
17 24 36 -15 37 l-35 1 0 -74z"/>
<path d="M2355 545 c-14 -13 -25 -36 -25 -50 0 -31 44 -75 75 -75 30 0 75 47
75 77 0 32 -42 73 -75 73 -14 0 -37 -11 -50 -25z m85 -50 c0 -29 -28 -47 -53
-34 -40 23 -6 90 35 68 10 -5 18 -21 18 -34z"/>
<path d="M2500 493 c0 -58 3 -73 15 -73 11 0 15 12 15 50 0 38 4 52 19 60 25
13 27 13 45 -6 10 -9 16 -33 16 -60 0 -32 4 -44 15 -44 24 0 20 91 -5 123 -18
22 -28 26 -70 25 l-50 -1 0 -74z"/>
<path d="M2660 495 c0 -68 2 -75 20 -75 18 0 20 7 20 75 0 68 -2 75 -20 75
-18 0 -20 -7 -20 -75z"/>
<path d="M2746 549 c-36 -28 -36 -80 0 -108 35 -27 57 -26 91 3 35 30 24 44
-19 23 -39 -19 -68 -7 -68 28 0 25 32 51 51 40 5 -4 18 -4 27 0 16 6 15 8 -2
21 -27 19 -49 18 -80 -7z"/>
<path d="M2990 495 c0 -68 2 -75 20 -75 17 0 20 7 20 48 0 44 12 72 31 72 21
0 39 -35 39 -76 0 -32 4 -44 15 -44 11 0 15 12 15 50 0 54 19 76 52 59 14 -7
18 -22 18 -59 0 -44 2 -50 21 -50 20 0 21 4 16 56 -7 71 -29 98 -72 89 -34 -7
-40 -7 -117 0 l-58 4 0 -74z"/>
<path d="M3289 557 c-9 -7 -21 -23 -28 -35 -17 -31 1 -75 35 -91 31 -14 36
-14 69 -1 22 9 25 13 15 25 -9 11 -17 12 -30 5 -45 -24 -40 3 5 32 41 27 43
41 13 62 -27 19 -57 20 -79 3z m56 -26 c3 -5 -7 -19 -22 -31 -26 -20 -28 -21
-32 -4 -5 27 40 56 54 35z"/>
<path d="M3580 495 c0 -60 3 -75 15 -75 12 0 15 15 15 75 0 60 -3 75 -15 75
-12 0 -15 -15 -15 -75z"/>
<path d="M3655 545 c-33 -32 -32 -70 1 -100 35 -32 64 -31 100 2 24 23 26 28
12 31 -10 2 -27 -3 -39 -12 -29 -20 -59 -5 -59 29 0 25 26 46 48 38 7 -3 20
-2 30 2 16 6 15 8 -2 21 -29 21 -64 17 -91 -11z"/>
<path d="M3814 545 c-53 -53 -12 -124 70 -123 l46 1 0 72 0 72 -46 1 c-36 0
-52 -5 -70 -23z m86 -50 c0 -29 -28 -47 -53 -34 -40 23 -6 90 35 68 10 -5 18
-21 18 -34z"/>
<path d="M4130 494 c0 -59 3 -74 15 -74 11 0 15 12 15 44 0 42 18 76 41 76 5
0 9 6 9 14 0 9 -13 13 -40 13 l-40 0 0 -73z"/>
<path d="M4249 557 c-9 -7 -21 -23 -28 -35 -17 -31 1 -75 35 -91 31 -14 36
-14 69 -1 22 9 25 13 15 25 -9 11 -17 12 -30 5 -45 -24 -40 3 5 32 41 27 43
41 13 62 -27 19 -57 20 -79 3z m56 -26 c3 -5 -7 -19 -22 -31 -26 -20 -28 -21
-32 -4 -5 27 40 56 54 35z"/>
<path d="M4395 545 c-33 -32 -32 -70 1 -100 35 -32 64 -31 100 2 24 23 26 28
12 31 -10 2 -27 -3 -39 -12 -29 -20 -59 -5 -59 29 0 25 26 46 48 38 7 -3 20
-2 30 2 16 6 15 8 -2 21 -29 21 -64 17 -91 -11z"/>
<path d="M4555 545 c-14 -13 -25 -36 -25 -50 0 -31 44 -75 75 -75 30 0 75 47
75 77 0 32 -42 73 -75 73 -14 0 -37 -11 -50 -25z m85 -50 c0 -29 -28 -47 -53
-34 -40 23 -6 90 35 68 10 -5 18 -21 18 -34z"/>
<path d="M4700 494 c0 -59 3 -74 15 -74 11 0 15 12 15 50 0 39 4 52 20 60 32
17 24 36 -15 37 l-35 1 0 -74z"/>
</g>
</svg>
